<?xml version="1.0" encoding="UTF-8" standalone="no"?>
<!DOCTYPE svg PUBLIC "-//W3C//DTD SVG 1.1//EN"
 "http://www.w3.org/Graphics/SVG/1.1/DTD/svg11.dtd">
<!-- Generated by graphviz version 15.1.0 (20260618.0150)
 -->
<!-- Title: paper_system_architecture Pages: 1 -->
<svg width="1483pt" height="498pt"
 viewBox="0.00 0.00 1483.00 498.00" xmlns="http://www.w3.org/2000/svg" xmlns:xlink="http://www.w3.org/1999/xlink">
<g id="graph0" class="graph" transform="scale(1 1) rotate(0) translate(4 494.36)">
<title>paper_system_architecture</title>
<polygon fill="white" stroke="none" points="-4,4 -4,-494.36 1478.96,-494.36 1478.96,4 -4,4"/>
<!-- rf_in -->
<g id="node1" class="node">
<title>rf_in</title>
<polygon fill="#ffffff" stroke="#666666" stroke-width="1.4" points="163.58,-340.36 102.17,-340.36 102.17,-289.89 163.58,-289.89 163.58,-340.36"/>
<text xml:space="preserve" text-anchor="middle" x="132.88" y="-318.68" font-family="Helvetica,sans-Serif" font-size="16.00">RF in</text>
<text xml:space="preserve" text-anchor="middle" x="132.88" y="-299.93" font-family="Helvetica,sans-Serif" font-size="16.00">(2 ch)</text>
</g>
<!-- clk_lmx -->
<g id="node3" class="node">
<title>clk_lmx</title>
<polygon fill="#ffffff" stroke="#666666" stroke-width="1.4" points="193.96,-265.36 71.79,-265.36 71.79,-214.9 193.96,-214.9 193.96,-265.36"/>
<text xml:space="preserve" text-anchor="middle" x="132.88" y="-243.68" font-family="Helvetica,sans-Serif" font-size="16.00">LMX RF synth</text>
<text xml:space="preserve" text-anchor="middle" x="132.88" y="-224.93" font-family="Helvetica,sans-Serif" font-size="16.00">3932.16 MHz</text>
</g>
<!-- rf_in&#45;&gt;clk_lmx -->
<!-- rfdc -->
<g id="node5" class="node">
<title>rfdc</title>
<path fill="#e1d5e7" stroke="#8e44ad" stroke-width="1.4" d="M526.66,-349.73C526.66,-349.73 313.75,-349.73 313.75,-349.73 307.75,-349.73 301.75,-343.73 301.75,-337.73 301.75,-337.73 301.75,-292.52 301.75,-292.52 301.75,-286.52 307.75,-280.52 313.75,-280.52 313.75,-280.52 526.66,-280.52 526.66,-280.52 532.66,-280.52 538.66,-286.52 538.66,-292.52 538.66,-292.52 538.66,-337.73 538.66,-337.73 538.66,-343.73 532.66,-349.73 526.66,-349.73"/>
<text xml:space="preserve" text-anchor="middle" x="420.2" y="-328.05" font-family="Helvetica,sans-Serif" font-size="16.00">RF Data Converter</text>
<text xml:space="preserve" text-anchor="middle" x="420.2" y="-309.3" font-family="Helvetica,sans-Serif" font-size="16.00">2 ADC + 2 DAC @ 3.932 GS/s</text>
<text xml:space="preserve" text-anchor="middle" x="420.2" y="-290.55" font-family="Helvetica,sans-Serif" font-size="16.00">dec/int 4x · fabric 245.76 MHz</text>
</g>
<!-- rf_in&#45;&gt;rfdc -->
<g id="edge5" class="edge">
<title>rf_in&#45;&gt;rfdc</title>
<path fill="none" stroke="#8e44ad" stroke-width="2" d="M164.17,-315.12C164.17,-315.12 291.19,-315.12 291.19,-315.12"/>
<polygon fill="#8e44ad" stroke="#8e44ad" stroke-width="2" points="291.19,-317.58 298.19,-315.13 291.19,-312.68 291.19,-317.58"/>
</g>
<!-- rf_out -->
<g id="node2" class="node">
<title>rf_out</title>
<polygon fill="#ffffff" stroke="#666666" stroke-width="1.4" points="166.95,-415.36 98.8,-415.36 98.8,-364.89 166.95,-364.89 166.95,-415.36"/>
<text xml:space="preserve" text-anchor="middle" x="132.88" y="-393.68" font-family="Helvetica,sans-Serif" font-size="16.00">RF out</text>
<text xml:space="preserve" text-anchor="middle" x="132.88" y="-374.93" font-family="Helvetica,sans-Serif" font-size="16.00">(2 ch)</text>
</g>
<!-- rf_out&#45;&gt;rf_in -->
<!-- clk_lmx&#45;&gt;rfdc -->
<g id="edge26" class="edge">
<title>clk_lmx&#45;&gt;rfdc</title>
<path fill="none" stroke="#c99a00" stroke-width="1.3" stroke-dasharray="5,2" d="M179.96,-265.83C179.96,-275.95 179.96,-285.21 179.96,-285.21 179.96,-285.21 292.55,-285.21 292.55,-285.21"/>
<polygon fill="#c99a00" stroke="#c99a00" stroke-width="1.3" points="299.55,-285.21 292.55,-288.36 297.64,-285.36 292.55,-285.36 292.55,-285.21 292.55,-285.06 297.64,-285.06 292.55,-282.06 299.55,-285.21"/>
<polygon fill="white" stroke="none" points="226.57,-264.46 226.57,-285.21 305.82,-285.21 305.82,-264.46 226.57,-264.46"/>
<text xml:space="preserve" text-anchor="start" x="227.57" y="-269.21" font-family="Helvetica,sans-Serif" font-size="16.00" fill="#c99a00">sample clk</text>
</g>
<!-- legend -->
<g id="node16" class="node">
<title>legend</title>
<path fill="lightgrey" stroke="none" stroke-width="1.4" d="M253.75,-190.25C253.75,-190.25 12,-190.25 12,-190.25 6,-190.25 0,-184.25 0,-178.25 0,-178.25 0,-12 0,-12 0,-6 6,0 12,0 12,0 253.75,0 253.75,0 259.75,0 265.75,-6 265.75,-12 265.75,-12 265.75,-178.25 265.75,-178.25 265.75,-184.25 259.75,-190.25 253.75,-190.25"/>
<polygon fill="white" stroke="none" points="0,0 0,-190.25 265.75,-190.25 265.75,0 0,0"/>
<text xml:space="preserve" text-anchor="start" x="108.88" y="-170.95" font-family="Helvetica,sans-Serif" font-weight="bold" font-size="14.00">Legend</text>
<polygon fill="#e1d5e7" stroke="none" points="5,-138.75 5,-161.5 29,-161.5 29,-138.75 5,-138.75"/>
<text xml:space="preserve" text-anchor="start" x="16.62" y="-149" font-family="Helvetica,sans-Serif" font-size="4.00"> </text>
<text xml:space="preserve" text-anchor="start" x="35" y="-144.5" font-family="Helvetica,sans-Serif" font-size="16.00">RF converter</text>
<text xml:space="preserve" text-anchor="start" x="136" y="-145.88" font-family="Helvetica,sans-Serif" font-weight="bold" font-size="15.00" fill="#8e44ad">――</text>
<text xml:space="preserve" text-anchor="start" x="174" y="-144.5" font-family="Helvetica,sans-Serif" font-size="16.00">analog RF</text>
<polygon fill="#dae8fc" stroke="none" points="5,-112 5,-134.75 29,-134.75 29,-112 5,-112"/>
<text xml:space="preserve" text-anchor="start" x="16.62" y="-122.25" font-family="Helvetica,sans-Serif" font-size="4.00"> </text>
<text xml:space="preserve" text-anchor="start" x="35" y="-117.75" font-family="Helvetica,sans-Serif" font-size="16.00">Datapath</text>
<text xml:space="preserve" text-anchor="start" x="136" y="-119.12" font-family="Helvetica,sans-Serif" font-weight="bold" font-size="15.00" fill="#1f6fc4">――</text>
<text xml:space="preserve" text-anchor="start" x="174" y="-117.75" font-family="Helvetica,sans-Serif" font-size="16.00">AXI&#45;Stream</text>
<polygon fill="#d5e8d4" stroke="none" points="5,-85.25 5,-108 29,-108 29,-85.25 5,-85.25"/>
<text xml:space="preserve" text-anchor="start" x="16.62" y="-95.5" font-family="Helvetica,sans-Serif" font-size="4.00"> </text>
<text xml:space="preserve" text-anchor="start" x="35" y="-91" font-family="Helvetica,sans-Serif" font-size="16.00">Control</text>
<text xml:space="preserve" text-anchor="start" x="136" y="-92.38" font-family="Helvetica,sans-Serif" font-weight="bold" font-size="15.00" fill="#b85450">――</text>
<text xml:space="preserve" text-anchor="start" x="174" y="-91" font-family="Helvetica,sans-Serif" font-size="16.00">AXI&#45;MM</text>
<polygon fill="#fff2cc" stroke="none" points="5,-58.5 5,-81.25 29,-81.25 29,-58.5 5,-58.5"/>
<text xml:space="preserve" text-anchor="start" x="16.62" y="-68.75" font-family="Helvetica,sans-Serif" font-size="4.00"> </text>
<text xml:space="preserve" text-anchor="start" x="35" y="-64.25" font-family="Helvetica,sans-Serif" font-size="16.00">Clocking</text>
<text xml:space="preserve" text-anchor="start" x="136" y="-65.62" font-family="Helvetica,sans-Serif" font-weight="bold" font-size="15.00" fill="#2e8b57">――</text>
<text xml:space="preserve" text-anchor="start" x="174" y="-64.25" font-family="Helvetica,sans-Serif" font-size="16.00">AXI&#45;Lite</text>
<polygon fill="#f8cecc" stroke="none" points="5,-31.75 5,-54.5 29,-54.5 29,-31.75 5,-31.75"/>
<text xml:space="preserve" text-anchor="start" x="16.62" y="-42" font-family="Helvetica,sans-Serif" font-size="4.00"> </text>
<text xml:space="preserve" text-anchor="start" x="35" y="-37.5" font-family="Helvetica,sans-Serif" font-size="16.00">Memory</text>
<text xml:space="preserve" text-anchor="start" x="145" y="-38.88" font-family="Helvetica,sans-Serif" font-weight="bold" font-size="15.00" fill="#c99a00">– –</text>
<text xml:space="preserve" text-anchor="start" x="174" y="-37.5" font-family="Helvetica,sans-Serif" font-size="16.00">clock / sync</text>
<polygon fill="#ffe6cc" stroke="none" points="5,-5 5,-27.75 29,-27.75 29,-5 5,-5"/>
<text xml:space="preserve" text-anchor="start" x="16.62" y="-15.25" font-family="Helvetica,sans-Serif" font-size="4.00"> </text>
<text xml:space="preserve" text-anchor="start" x="35" y="-10.75" font-family="Helvetica,sans-Serif" font-size="16.00">Processor</text>
<text xml:space="preserve" text-anchor="start" x="148.75" y="-10.75" font-family="Helvetica,sans-Serif" font-size="16.00"> </text>
<text xml:space="preserve" text-anchor="start" x="214.12" y="-10.75" font-family="Helvetica,sans-Serif" font-size="16.00"> </text>
<polygon fill="none" stroke="#777777" points="0,0 0,-190.25 265.75,-190.25 265.75,0 0,0"/>
</g>
<!-- clk_lmx&#45;&gt;legend -->
<!-- clk_lmk -->
<g id="node4" class="node">
<title>clk_lmk</title>
<polygon fill="#ffffff" stroke="#666666" stroke-width="1.4" points="226.95,-490.36 38.8,-490.36 38.8,-439.89 226.95,-439.89 226.95,-490.36"/>
<text xml:space="preserve" text-anchor="middle" x="132.88" y="-468.68" font-family="Helvetica,sans-Serif" font-size="16.00">LMK clock</text>
<text xml:space="preserve" text-anchor="middle" x="132.88" y="-449.93" font-family="Helvetica,sans-Serif" font-size="16.00">122.88 MHz + SYSREF</text>
</g>
<!-- clk_lmk&#45;&gt;rf_out -->
<!-- clktree -->
<g id="node6" class="node">
<title>clktree</title>
<path fill="#fff2cc" stroke="#c99a00" stroke-width="1.4" d="M501.91,-457.36C501.91,-457.36 338.5,-457.36 338.5,-457.36 332.5,-457.36 326.5,-451.36 326.5,-445.36 326.5,-445.36 326.5,-418.89 326.5,-418.89 326.5,-412.89 332.5,-406.89 338.5,-406.89 338.5,-406.89 501.91,-406.89 501.91,-406.89 507.91,-406.89 513.91,-412.89 513.91,-418.89 513.91,-418.89 513.91,-445.36 513.91,-445.36 513.91,-451.36 507.91,-457.36 501.91,-457.36"/>
<text xml:space="preserve" text-anchor="middle" x="420.2" y="-435.68" font-family="Helvetica,sans-Serif" font-size="16.00">Clock tree + MTS sync</text>
<text xml:space="preserve" text-anchor="middle" x="420.2" y="-416.93" font-family="Helvetica,sans-Serif" font-size="16.00">MMCM · SYSREF CDC</text>
</g>
<!-- clk_lmk&#45;&gt;clktree -->
<g id="edge24" class="edge">
<title>clk_lmk&#45;&gt;clktree</title>
<path fill="none" stroke="#c99a00" stroke-width="1.3" stroke-dasharray="5,2" d="M227.36,-448.62C227.36,-448.62 317.57,-448.62 317.57,-448.62"/>
<polygon fill="#c99a00" stroke="#c99a00" stroke-width="1.3" points="324.57,-448.63 317.57,-451.78 322.66,-448.78 317.57,-448.78 317.57,-448.63 317.57,-448.48 322.66,-448.48 317.57,-445.48 324.57,-448.63"/>
</g>
<!-- rfdc&#45;&gt;rf_out -->
<g id="edge6" class="edge">
<title>rfdc&#45;&gt;rf_out</title>
<path fill="none" stroke="#8e44ad" stroke-width="2" d="M313.96,-350.18C313.96,-363.44 313.96,-375.39 313.96,-375.39 313.96,-375.39 177.39,-375.39 177.39,-375.39"/>
<polygon fill="#8e44ad" stroke="#8e44ad" stroke-width="2" points="177.39,-372.95 170.39,-375.4 177.39,-377.85 177.39,-372.95"/>
</g>
<!-- rx_cap -->
<g id="node7" class="node">
<title>rx_cap</title>
<path fill="#dae8fc" stroke="#1f6fc4" stroke-width="1.4" d="M799.19,-349.73C799.19,-349.73 591.54,-349.73 591.54,-349.73 585.54,-349.73 579.54,-343.73 579.54,-337.73 579.54,-337.73 579.54,-292.52 579.54,-292.52 579.54,-286.52 585.54,-280.52 591.54,-280.52 591.54,-280.52 799.19,-280.52 799.19,-280.52 805.19,-280.52 811.19,-286.52 811.19,-292.52 811.19,-292.52 811.19,-337.73 811.19,-337.73 811.19,-343.73 805.19,-349.73 799.19,-349.73"/>
<text xml:space="preserve" text-anchor="middle" x="695.37" y="-328.05" font-family="Helvetica,sans-Serif" font-size="16.00">RX capture</text>
<text xml:space="preserve" text-anchor="middle" x="695.37" y="-309.3" font-family="Helvetica,sans-Serif" font-size="16.00">AXIS combiner · capture gate</text>
<text xml:space="preserve" text-anchor="middle" x="695.37" y="-290.55" font-family="Helvetica,sans-Serif" font-size="16.00">CDC + buffer FIFO</text>
</g>
<!-- rfdc&#45;&gt;rx_cap -->
<g id="edge7" class="edge">
<title>rfdc&#45;&gt;rx_cap</title>
<path fill="none" stroke="#1f6fc4" stroke-width="2" d="M539.29,-315.12C539.29,-315.12 569.11,-315.12 569.11,-315.12"/>
<polygon fill="#1f6fc4" stroke="#1f6fc4" stroke-width="2" points="569.11,-317.58 576.11,-315.13 569.11,-312.68 569.11,-317.58"/>
</g>
<!-- clktree&#45;&gt;rfdc -->
<g id="edge25" class="edge">
<title>clktree&#45;&gt;rfdc</title>
<path fill="none" stroke="#c99a00" stroke-width="1.3" stroke-dasharray="5,2" d="M419.96,-406.45C419.96,-406.45 419.96,-358.65 419.96,-358.65"/>
<polygon fill="#c99a00" stroke="#c99a00" stroke-width="1.3" points="419.96,-351.65 423.11,-358.65 420.11,-353.56 420.11,-358.65 419.96,-358.65 419.81,-358.65 419.81,-353.56 416.81,-358.65 419.96,-351.65"/>
<text xml:space="preserve" text-anchor="middle" x="479.96" y="-367.22" font-family="Helvetica,sans-Serif" font-size="16.00" fill="#c99a00">rf_clk + SYSREF</text>
</g>
<!-- dma_rx -->
<g id="node9" class="node">
<title>dma_rx</title>
<path fill="#dae8fc" stroke="#1f6fc4" stroke-width="1.4" d="M965.98,-340.36C965.98,-340.36 868.57,-340.36 868.57,-340.36 862.57,-340.36 856.57,-334.36 856.57,-328.36 856.57,-328.36 856.57,-301.89 856.57,-301.89 856.57,-295.89 862.57,-289.89 868.57,-289.89 868.57,-289.89 965.98,-289.89 965.98,-289.89 971.98,-289.89 977.98,-295.89 977.98,-301.89 977.98,-301.89 977.98,-328.36 977.98,-328.36 977.98,-334.36 971.98,-340.36 965.98,-340.36"/>
<text xml:space="preserve" text-anchor="middle" x="917.28" y="-318.68" font-family="Helvetica,sans-Serif" font-size="16.00">AXI DMA (RX)</text>
<text xml:space="preserve" text-anchor="middle" x="917.28" y="-299.93" font-family="Helvetica,sans-Serif" font-size="16.00">S2MM</text>
</g>
<!-- rx_cap&#45;&gt;dma_rx -->
<g id="edge8" class="edge">
<title>rx_cap&#45;&gt;dma_rx</title>
<path fill="none" stroke="#1f6fc4" stroke-width="2" d="M811.84,-315.12C811.84,-315.12 846.07,-315.12 846.07,-315.12"/>
<polygon fill="#1f6fc4" stroke="#1f6fc4" stroke-width="2" points="846.07,-317.58 853.07,-315.13 846.07,-312.68 846.07,-317.58"/>
</g>
<!-- tx_pb -->
<g id="node8" class="node">
<title>tx_pb</title>
<path fill="#dae8fc" stroke="#1f6fc4" stroke-width="1.4" d="M804.07,-255.73C804.07,-255.73 586.66,-255.73 586.66,-255.73 580.66,-255.73 574.66,-249.73 574.66,-243.73 574.66,-243.73 574.66,-198.52 574.66,-198.52 574.66,-192.52 580.66,-186.52 586.66,-186.52 586.66,-186.52 804.07,-186.52 804.07,-186.52 810.07,-186.52 816.07,-192.52 816.07,-198.52 816.07,-198.52 816.07,-243.73 816.07,-243.73 816.07,-249.73 810.07,-255.73 804.07,-255.73"/>
<text xml:space="preserve" text-anchor="middle" x="695.37" y="-234.05" font-family="Helvetica,sans-Serif" font-size="16.00">TX playback</text>
<text xml:space="preserve" text-anchor="middle" x="695.37" y="-215.3" font-family="Helvetica,sans-Serif" font-size="16.00">recirculating waveform buffer</text>
<text xml:space="preserve" text-anchor="middle" x="695.37" y="-196.55" font-family="Helvetica,sans-Serif" font-size="16.00">stream mux · async CDC FIFO</text>
</g>
<!-- tx_pb&#45;&gt;rfdc -->
<g id="edge10" class="edge">
<title>tx_pb&#45;&gt;rfdc</title>
<path fill="none" stroke="#1f6fc4" stroke-width="2" d="M574.17,-235.31C500.28,-235.31 419.96,-235.31 419.96,-235.31 419.96,-235.31 419.96,-269.86 419.96,-269.86"/>
<polygon fill="#1f6fc4" stroke="#1f6fc4" stroke-width="2" points="417.51,-269.86 419.96,-276.86 422.41,-269.86 417.51,-269.86"/>
<text xml:space="preserve" text-anchor="middle" x="451.29" y="-220.11" font-family="Helvetica,sans-Serif" font-size="16.00" fill="#1f6fc4">2x AXIS</text>
</g>
<!-- ps -->
<g id="node12" class="node">
<title>ps</title>
<path fill="lightgrey" stroke="none" stroke-width="1.4" d="M1170.64,-365.36C1170.64,-365.36 1030.48,-365.36 1030.48,-365.36 1024.48,-365.36 1018.48,-359.36 1018.48,-353.36 1018.48,-353.36 1018.48,-182.89 1018.48,-182.89 1018.48,-176.89 1024.48,-170.89 1030.48,-170.89 1030.48,-170.89 1170.64,-170.89 1170.64,-170.89 1176.64,-170.89 1182.64,-176.89 1182.64,-182.89 1182.64,-182.89 1182.64,-353.36 1182.64,-353.36 1182.64,-359.36 1176.64,-365.36 1170.64,-365.36"/>
<polygon fill="white" stroke="none" points="1028.56,-177.38 1028.56,-358.88 1172.56,-358.88 1172.56,-177.38 1028.56,-177.38"/>
<polygon fill="#d79b00" stroke="none" points="1028.56,-331.12 1028.56,-358.88 1172.56,-358.88 1172.56,-331.12 1028.56,-331.12"/>
<polygon fill="none" stroke="black" points="1028.56,-331.12 1028.56,-358.88 1172.56,-358.88 1172.56,-331.12 1028.56,-331.12"/>
<text xml:space="preserve" text-anchor="start" x="1034.56" y="-340.57" font-family="Helvetica,sans-Serif" font-weight="bold" font-size="14.00" fill="white">Zynq UltraScale+ PS</text>
<polygon fill="#ffe6cc" stroke="none" points="1028.56,-300.38 1028.56,-331.12 1172.56,-331.12 1172.56,-300.38 1028.56,-300.38"/>
<polygon fill="none" stroke="black" points="1028.56,-300.38 1028.56,-331.12 1172.56,-331.12 1172.56,-300.38 1028.56,-300.38"/>
<text xml:space="preserve" text-anchor="start" x="1034.56" y="-310.12" font-family="Helvetica,sans-Serif" font-size="16.00">S_AXI_HP0</text>
<polygon fill="#ffe6cc" stroke="none" points="1028.56,-269.62 1028.56,-300.38 1172.56,-300.38 1172.56,-269.62 1028.56,-269.62"/>
<polygon fill="none" stroke="black" points="1028.56,-269.62 1028.56,-300.38 1172.56,-300.38 1172.56,-269.62 1028.56,-269.62"/>
<text xml:space="preserve" text-anchor="start" x="1034.56" y="-279.38" font-family="Helvetica,sans-Serif" font-size="16.00">M_AXI_HPM1</text>
<polygon fill="#ffe6cc" stroke="none" points="1028.56,-238.88 1028.56,-269.62 1172.56,-269.62 1172.56,-238.88 1028.56,-238.88"/>
<polygon fill="none" stroke="black" points="1028.56,-238.88 1028.56,-269.62 1172.56,-269.62 1172.56,-238.88 1028.56,-238.88"/>
<text xml:space="preserve" text-anchor="start" x="1034.56" y="-248.62" font-family="Helvetica,sans-Serif" font-size="16.00">M_AXI_HPM0</text>
<polygon fill="#ffe6cc" stroke="none" points="1028.56,-208.12 1028.56,-238.88 1172.56,-238.88 1172.56,-208.12 1028.56,-208.12"/>
<polygon fill="none" stroke="black" points="1028.56,-208.12 1028.56,-238.88 1172.56,-238.88 1172.56,-208.12 1028.56,-208.12"/>
<text xml:space="preserve" text-anchor="start" x="1034.56" y="-217.88" font-family="Helvetica,sans-Serif" font-size="16.00">S_AXI_HP1</text>
<polygon fill="#ffe6cc" stroke="none" points="1028.56,-177.38 1028.56,-208.12 1172.56,-208.12 1172.56,-177.38 1028.56,-177.38"/>
<polygon fill="none" stroke="black" points="1028.56,-177.38 1028.56,-208.12 1172.56,-208.12 1172.56,-177.38 1028.56,-177.38"/>
<text xml:space="preserve" text-anchor="start" x="1034.56" y="-187.12" font-family="Helvetica,sans-Serif" font-size="16.00">DDR controller</text>
</g>
<!-- dma_rx&#45;&gt;ps -->
<g id="edge11" class="edge">
<title>dma_rx&#45;&gt;ps:w</title>
<path fill="none" stroke="#b85450" stroke-width="1.7" d="M978.45,-306.71C978.45,-306.71 1018.99,-306.71 1018.99,-306.71"/>
<polygon fill="#b85450" stroke="#b85450" stroke-width="1.7" points="1018.99,-309.17 1025.99,-306.72 1018.99,-304.27 1018.99,-309.17"/>
</g>
<!-- sc -->
<g id="node13" class="node">
<title>sc</title>
<path fill="#f8cecc" stroke="#b85450" stroke-width="1.4" d="M1329.55,-283.36C1329.55,-283.36 1230.64,-283.36 1230.64,-283.36 1224.64,-283.36 1218.64,-277.36 1218.64,-271.36 1218.64,-271.36 1218.64,-244.9 1218.64,-244.9 1218.64,-238.9 1224.64,-232.9 1230.64,-232.9 1230.64,-232.9 1329.55,-232.9 1329.55,-232.9 1335.55,-232.9 1341.55,-238.9 1341.55,-244.9 1341.55,-244.9 1341.55,-271.36 1341.55,-271.36 1341.55,-277.36 1335.55,-283.36 1329.55,-283.36"/>
<text xml:space="preserve" text-anchor="middle" x="1280.1" y="-261.68" font-family="Helvetica,sans-Serif" font-size="16.00">AXI</text>
<text xml:space="preserve" text-anchor="middle" x="1280.1" y="-242.93" font-family="Helvetica,sans-Serif" font-size="16.00">SmartConnect</text>
</g>
<!-- dma_rx&#45;&gt;sc -->
<g id="edge13" class="edge">
<title>dma_rx&#45;&gt;sc</title>
<path fill="none" stroke="#b85450" stroke-width="1.7" d="M978.53,-323.53C991.29,-323.53 1000.96,-323.53 1000.96,-323.53 1000.96,-323.53 1000.96,-390.36 1000.96,-390.36 1000.96,-390.36 1279.96,-390.36 1279.96,-390.36 1279.96,-390.36 1279.96,-293.51 1279.96,-293.51"/>
<polygon fill="#b85450" stroke="#b85450" stroke-width="1.7" points="1282.41,-293.51 1279.96,-286.51 1277.51,-293.51 1282.41,-293.51"/>
</g>
<!-- ctrl -->
<g id="node10" class="node">
<title>ctrl</title>
<path fill="#d5e8d4" stroke="#2e8b57" stroke-width="1.4" d="M970.48,-415.36C970.48,-415.36 864.07,-415.36 864.07,-415.36 858.07,-415.36 852.07,-409.36 852.07,-403.36 852.07,-403.36 852.07,-376.89 852.07,-376.89 852.07,-370.89 858.07,-364.89 864.07,-364.89 864.07,-364.89 970.48,-364.89 970.48,-364.89 976.48,-364.89 982.48,-370.89 982.48,-376.89 982.48,-376.89 982.48,-403.36 982.48,-403.36 982.48,-409.36 976.48,-415.36 970.48,-415.36"/>
<text xml:space="preserve" text-anchor="middle" x="917.28" y="-393.68" font-family="Helvetica,sans-Serif" font-size="16.00">AXI&#45;Lite control</text>
<text xml:space="preserve" text-anchor="middle" x="917.28" y="-374.93" font-family="Helvetica,sans-Serif" font-size="16.00">interconnect</text>
</g>
<!-- ctrl&#45;&gt;rfdc -->
<g id="edge19" class="edge">
<title>ctrl&#45;&gt;rfdc</title>
<path fill="none" stroke="#2e8b57" stroke-width="1.4" d="M851.78,-396.39C740.38,-396.39 525.96,-396.39 525.96,-396.39 525.96,-396.39 525.96,-359.18 525.96,-359.18"/>
<polygon fill="#2e8b57" stroke="#2e8b57" stroke-width="1.4" points="528.41,-359.18 525.96,-352.18 523.51,-359.18 528.41,-359.18"/>
</g>
<!-- ctrl&#45;&gt;clktree -->
<g id="edge23" class="edge">
<title>ctrl&#45;&gt;clktree</title>
<path fill="none" stroke="#2e8b57" stroke-width="1.4" d="M851.52,-411.12C851.52,-411.12 523.32,-411.12 523.32,-411.12"/>
<polygon fill="#2e8b57" stroke="#2e8b57" stroke-width="1.4" points="523.32,-408.68 516.32,-411.13 523.32,-413.58 523.32,-408.68"/>
</g>
<!-- ctrl&#45;&gt;rx_cap -->
<g id="edge20" class="edge">
<title>ctrl&#45;&gt;rx_cap</title>
<path fill="none" stroke="#2e8b57" stroke-width="1.4" d="M886.96,-364.42C886.96,-354.3 886.96,-345.04 886.96,-345.04 886.96,-345.04 820.91,-345.04 820.91,-345.04"/>
<polygon fill="#2e8b57" stroke="#2e8b57" stroke-width="1.4" points="820.91,-342.59 813.91,-345.04 820.91,-347.49 820.91,-342.59"/>
</g>
<!-- ctrl&#45;&gt;dma_rx -->
<g id="edge21" class="edge">
<title>ctrl&#45;&gt;dma_rx</title>
<path fill="none" stroke="#2e8b57" stroke-width="1.4" d="M947.96,-364.31C947.96,-364.31 947.96,-350.1 947.96,-350.1"/>
<polygon fill="#2e8b57" stroke="#2e8b57" stroke-width="1.4" points="950.41,-350.1 947.96,-343.1 945.51,-350.1 950.41,-350.1"/>
</g>
<!-- dma_tx -->
<g id="node11" class="node">
<title>dma_tx</title>
<path fill="#dae8fc" stroke="#1f6fc4" stroke-width="1.4" d="M965.23,-249.35C965.23,-249.35 869.32,-249.35 869.32,-249.35 863.32,-249.35 857.32,-243.35 857.32,-237.35 857.32,-237.35 857.32,-210.9 857.32,-210.9 857.32,-204.9 863.32,-198.9 869.32,-198.9 869.32,-198.9 965.23,-198.9 965.23,-198.9 971.23,-198.9 977.23,-204.9 977.23,-210.9 977.23,-210.9 977.23,-237.35 977.23,-237.35 977.23,-243.35 971.23,-249.35 965.23,-249.35"/>
<text xml:space="preserve" text-anchor="middle" x="917.28" y="-227.68" font-family="Helvetica,sans-Serif" font-size="16.00">AXI DMA (TX)</text>
<text xml:space="preserve" text-anchor="middle" x="917.28" y="-208.93" font-family="Helvetica,sans-Serif" font-size="16.00">MM2S</text>
</g>
<!-- ctrl&#45;&gt;dma_tx -->
<g id="edge22" class="edge">
<title>ctrl&#45;&gt;dma_tx</title>
<path fill="none" stroke="#2e8b57" stroke-width="1.4" d="M851.63,-385.89C841.3,-385.89 833.96,-385.89 833.96,-385.89 833.96,-385.89 833.96,-232.53 833.96,-232.53 833.96,-232.53 847.61,-232.53 847.61,-232.53"/>
<polygon fill="#2e8b57" stroke="#2e8b57" stroke-width="1.4" points="847.61,-234.99 854.61,-232.54 847.61,-230.09 847.61,-234.99"/>
</g>
<!-- dma_tx&#45;&gt;tx_pb -->
<g id="edge9" class="edge">
<title>dma_tx&#45;&gt;tx_pb</title>
<path fill="none" stroke="#1f6fc4" stroke-width="2" d="M856.64,-215.72C856.64,-215.72 826.53,-215.72 826.53,-215.72"/>
<polygon fill="#1f6fc4" stroke="#1f6fc4" stroke-width="2" points="826.53,-213.27 819.53,-215.72 826.53,-218.17 826.53,-213.27"/>
</g>
<!-- dma_tx&#45;&gt;ps -->
<g id="edge12" class="edge">
<title>dma_tx&#45;&gt;ps:w</title>
<path fill="none" stroke="#b85450" stroke-width="1.7" d="M977.8,-224.12C977.8,-224.12 1018.99,-224.12 1018.99,-224.12"/>
<polygon fill="#b85450" stroke="#b85450" stroke-width="1.7" points="1018.99,-226.58 1025.99,-224.13 1018.99,-221.68 1018.99,-226.58"/>
</g>
<!-- dma_tx&#45;&gt;sc -->
<g id="edge14" class="edge">
<title>dma_tx&#45;&gt;sc</title>
<path fill="none" stroke="#b85450" stroke-width="1.7" d="M916.96,-198.37C916.96,-158.26 916.96,-85.45 916.96,-85.45 916.96,-85.45 1224.96,-85.45 1224.96,-85.45 1224.96,-85.45 1224.96,-222.7 1224.96,-222.7"/>
<polygon fill="#b85450" stroke="#b85450" stroke-width="1.7" points="1222.51,-222.7 1224.96,-229.7 1227.41,-222.7 1222.51,-222.7"/>
</g>
<!-- ps&#45;&gt;ctrl -->
<g id="edge18" class="edge">
<title>ps:w&#45;&gt;ctrl</title>
<path fill="none" stroke="#2e8b57" stroke-width="1.4" d="M1028.56,-357.31C1028.56,-357.31 916.96,-357.31 916.96,-357.31 916.96,-357.31 916.96,-358.01 916.96,-358.01"/>
<polygon fill="#2e8b57" stroke="#2e8b57" stroke-width="1.4" points="914.51,-355.15 916.96,-362.15 919.41,-355.15 914.51,-355.15"/>
</g>
<!-- ps&#45;&gt;sc -->
<g id="edge15" class="edge">
<title>ps:e&#45;&gt;sc</title>
<path fill="none" stroke="#b85450" stroke-width="1.7" d="M1172.56,-258.12C1172.56,-258.12 1208.59,-258.12 1208.59,-258.12"/>
<polygon fill="#b85450" stroke="#b85450" stroke-width="1.7" points="1208.59,-260.58 1215.59,-258.13 1208.59,-255.68 1208.59,-260.58"/>
</g>
<!-- ddr4ps -->
<g id="node14" class="node">
<title>ddr4ps</title>
<polygon fill="#f8cecc" stroke="#b85450" stroke-width="1.4" points="1329.55,-208.12 1234.64,-208.12 1230.64,-204.12 1230.64,-172.12 1325.55,-172.12 1329.55,-176.12 1329.55,-208.12"/>
<polyline fill="none" stroke="#b85450" stroke-width="1.4" points="1325.55,-204.12 1230.64,-204.12"/>
<polyline fill="none" stroke="#b85450" stroke-width="1.4" points="1325.55,-204.12 1325.55,-172.12"/>
<polyline fill="none" stroke="#b85450" stroke-width="1.4" points="1325.55,-204.12 1329.55,-208.12"/>
<text xml:space="preserve" text-anchor="middle" x="1280.1" y="-184.3" font-family="Helvetica,sans-Serif" font-size="16.00">DDR4 (PS)</text>
</g>
<!-- ps&#45;&gt;ddr4ps -->
<g id="edge17" class="edge">
<title>ps:e&#45;&gt;ddr4ps</title>
<path fill="none" stroke="#555555" stroke-width="1.4" d="M1172.56,-190.12C1172.56,-190.12 1220.99,-190.12 1220.99,-190.12"/>
<polygon fill="#555555" stroke="#555555" stroke-width="1.4" points="1220.99,-192.58 1227.99,-190.13 1220.99,-187.68 1220.99,-192.58"/>
</g>
<!-- ddr4pl -->
<g id="node15" class="node">
<title>ddr4pl</title>
<polygon fill="#f8cecc" stroke="#b85450" stroke-width="1.4" points="1474.96,-283.36 1381.55,-283.36 1377.55,-279.36 1377.55,-232.9 1470.96,-232.9 1474.96,-236.9 1474.96,-283.36"/>
<polyline fill="none" stroke="#b85450" stroke-width="1.4" points="1470.96,-279.36 1377.55,-279.36"/>
<polyline fill="none" stroke="#b85450" stroke-width="1.4" points="1470.96,-279.36 1470.96,-232.9"/>
<polyline fill="none" stroke="#b85450" stroke-width="1.4" points="1470.96,-279.36 1474.96,-283.36"/>
<text xml:space="preserve" text-anchor="middle" x="1426.26" y="-261.68" font-family="Helvetica,sans-Serif" font-size="16.00">DDR4 (PL)</text>
<text xml:space="preserve" text-anchor="middle" x="1426.26" y="-242.93" font-family="Helvetica,sans-Serif" font-size="16.00">4 GB</text>
</g>
<!-- sc&#45;&gt;ddr4pl -->
<g id="edge16" class="edge">
<title>sc&#45;&gt;ddr4pl</title>
<path fill="none" stroke="#b85450" stroke-width="1.7" d="M1342.08,-258.12C1342.08,-258.12 1367.45,-258.12 1367.45,-258.12"/>
<polygon fill="#b85450" stroke="#b85450" stroke-width="1.7" points="1367.45,-260.58 1374.45,-258.13 1367.45,-255.68 1367.45,-260.58"/>
</g>
</g>
</svg>
